<svg width="19" height="21" viewBox="0 0 19 21" fill="none" xmlns="http://www.w3.org/2000/svg">
<path d="M14.982 5.68616L15.1975 13.2514C15.2041 13.4829 15.1233 13.7116 14.9728 13.8871C14.8223 14.0626 14.6145 14.1705 14.3951 14.1872C14.1758 14.2039 13.9627 14.1279 13.8029 13.976C13.6431 13.8241 13.5497 13.6087 13.5431 13.3772L13.3876 7.9215L6.19922 16.3041C6.04848 16.4799 5.84034 16.5881 5.62057 16.6048C5.40079 16.6215 5.1874 16.5454 5.02732 16.3932C4.86725 16.2411 4.77361 16.0253 4.767 15.7934C4.7604 15.5615 4.84136 15.3324 4.9921 15.1566L12.1805 6.77397L7.01041 7.16708C6.79102 7.18376 6.57799 7.10779 6.41819 6.95589C6.2584 6.80398 6.16492 6.58858 6.15832 6.35707C6.15173 6.12555 6.23256 5.8969 6.38303 5.7214C6.5335 5.5459 6.74128 5.43794 6.96067 5.42125L14.1299 4.87614C14.3493 4.85946 14.5623 4.93543 14.7221 5.08734C14.8819 5.23925 14.9754 5.45465 14.982 5.68616Z" fill="white"/>
</svg>
