<svg width="218" height="170" viewBox="0 0 218 170" fill="none" xmlns="http://www.w3.org/2000/svg">
<path d="M20.2377 140.592C30.9471 142.951 39.7788 141.61 49.7587 137.11C51.4256 137.07 49.5878 138.893 49.1479 139.437C45.0697 144.135 37.2791 145.705 31.0548 146.549C47.6295 152.404 68.0536 156.242 85.0049 151.056C104.763 145.439 122.844 127.144 120.904 105.6C107.618 103.529 93.5506 98.2216 84.8754 87.4492C75.021 72.5351 90.2402 61.176 105.684 68.429C118.209 74.3137 126.56 86.9211 129.541 100.292C183.757 100.956 209.229 49.1665 189.007 2.041C188.98 1.984 188.965 1.92206 188.962 1.85896C188.96 1.79587 188.97 1.73294 188.993 1.67404C189.016 1.61513 189.05 1.56148 189.094 1.51636C189.139 1.47124 189.192 1.4356 189.25 1.41162C189.305 1.38446 189.366 1.36861 189.427 1.36501C189.489 1.36141 189.551 1.37012 189.609 1.39063C189.667 1.41114 189.72 1.44305 189.766 1.48449C189.812 1.52592 189.849 1.57606 189.875 1.63196C213.207 50.1132 186.472 104.919 130.313 106.203C131.499 122.206 122.885 137.709 110.306 147.134C87.9738 164.301 53.9657 161.914 30.0127 149.155C31.0744 151.872 33.1343 154.097 34.2052 156.801C35.4567 159.966 35.3472 166.213 33.503 164.636C32.2484 161.628 30.7648 158.721 29.0652 155.94C27.3965 153.098 25.423 149.941 23.624 147.182L23.2697 146.666L19.7411 141.392C19.6827 141.31 19.6499 141.213 19.6467 141.112C19.6435 141.012 19.6702 140.912 19.7232 140.827C19.7763 140.741 19.8534 140.674 19.945 140.632C20.0365 140.59 20.1384 140.576 20.2377 140.592ZM110.367 82.377C98.9179 67.8225 80.2215 74.1493 94.1457 87.256C101.564 93.2759 110.355 97.3699 119.737 99.174C117.944 92.9301 114.738 87.1826 110.367 82.377Z" fill="#8A1538"/>
<path d="M195.484 77.5655C195.435 77.5242 195.376 77.4959 195.313 77.4833C195.25 77.4706 195.184 77.474 195.123 77.4932C195.061 77.5124 195.006 77.5466 194.961 77.5929C194.916 77.6392 194.884 77.6959 194.867 77.758C191.673 89.0511 181.564 98.6454 171.506 101.339C171.415 101.362 171.337 101.419 171.287 101.498C171.236 101.577 171.218 101.672 171.236 101.763C171.254 101.855 171.303 101.939 171.373 102C171.444 102.062 171.533 102.098 171.627 102.104C183.907 102.772 193.725 89.3519 195.714 78.2573C195.737 78.1306 195.726 77.9999 195.682 77.8789C195.638 77.7579 195.561 77.6511 195.461 77.5698L195.484 77.5655Z" fill="#8A1538"/>
<path d="M79.0571 64.2513C72.201 64.7762 69.6413 74.0531 73.8704 79.0192C73.8979 79.0535 73.9362 79.0776 73.9791 79.0873C74.022 79.0971 74.067 79.0921 74.1067 79.0731C74.1463 79.0541 74.1785 79.0223 74.1977 78.9827C74.217 78.9432 74.2224 78.8983 74.2129 78.8553C73.1773 73.3735 74.2753 67.757 79.1725 64.6146C79.2112 64.5925 79.2411 64.5577 79.2574 64.5162C79.2736 64.4747 79.2751 64.4288 79.2616 64.3863C79.2481 64.3438 79.2204 64.3072 79.1832 64.2827C79.146 64.2581 79.1015 64.247 79.0571 64.2513Z" fill="#8A1538"/>
<path d="M196.107 73.8826C196.65 73.8281 197.154 73.5728 197.518 73.1667C197.797 72.8737 197.982 72.5034 198.047 72.1041C198.109 71.7176 198.053 71.3213 197.885 70.9677C197.659 70.4873 197.29 70.0883 196.829 69.8252C196.377 70.0455 195.975 70.3557 195.647 70.7369C195.425 70.9922 195.28 71.3045 195.226 71.6384C195.173 71.9723 195.214 72.3144 195.345 72.6262C195.541 73.0775 195.798 73.5001 196.107 73.8826Z" fill="#8A1538"/>
<path d="M75.2957 82.4553C75.2842 82.4245 75.2632 82.3982 75.2357 82.3801C75.2083 82.362 75.1757 82.3532 75.1429 82.3548C75.11 82.3565 75.0786 82.3686 75.0531 82.3893C75.0275 82.41 75.0093 82.4384 75.0009 82.4702C74.9043 82.8065 74.8776 83.1591 74.9224 83.5061C74.9858 83.9751 75.1386 84.4276 75.3726 84.839C75.6056 85.2487 75.9174 85.6082 76.2901 85.8969C76.5641 86.1147 76.8802 86.2735 77.2185 86.3634C77.2493 86.3701 77.2815 86.3675 77.311 86.3561C77.3404 86.3446 77.3658 86.3246 77.384 86.2988C77.4022 86.2729 77.4123 86.2423 77.4131 86.2107C77.4139 86.1791 77.4054 86.1479 77.3886 86.1212C77.1924 85.8548 77.0286 85.6057 76.8649 85.3565C76.6436 85.019 76.4448 84.6773 76.2461 84.3356C76.0473 83.9938 75.8598 83.65 75.6783 83.2758C75.5483 83.0203 75.4229 82.7581 75.2957 82.4553Z" fill="#8A1538"/>
<path d="M89.5999 143.075C81.2756 146.917 68.6178 148.824 59.7839 146.169C59.7644 146.16 59.7423 146.16 59.7224 146.167C59.7025 146.175 59.6864 146.19 59.6777 146.209C59.669 146.229 59.6684 146.251 59.676 146.271C59.6836 146.291 59.6988 146.307 59.7182 146.315C67.7851 151.088 82.46 148.986 89.6782 143.212C89.6925 143.2 89.702 143.183 89.7052 143.164C89.7084 143.146 89.7051 143.127 89.6958 143.111C89.6865 143.094 89.6718 143.082 89.6543 143.075C89.6368 143.069 89.6175 143.069 89.5999 143.075Z" fill="#8A1538"/>
</svg>
