<svg width="43" height="45" viewBox="0 0 43 45" fill="none" xmlns="http://www.w3.org/2000/svg">
<g clip-path="url(#clip0_1_4839)">
<path d="M24.875 16.8184H28V13.0684H24.875C24.276 13.0684 23.7096 13.1855 23.1758 13.4199C22.6419 13.6413 22.1764 13.9505 21.7793 14.3477C21.3822 14.7448 21.0729 15.2103 20.8516 15.7441C20.6172 16.278 20.5 16.8444 20.5 17.4434V19.3184H18V23.0684H20.5V33.0684H24.25V23.0684H27.375L28 19.3184H24.25V17.4434C24.25 17.2741 24.3118 17.1276 24.4355 17.0039C24.5592 16.8802 24.7057 16.8184 24.875 16.8184Z" fill="white"/>
</g>
<defs>
<clipPath id="clip0_1_4839">
<rect width="20" height="20" fill="white" transform="matrix(1 0 0 -1 13 33.0684)"/>
</clipPath>
</defs>
</svg>
