<svg width="43" height="45" viewBox="0 0 43 45" fill="none" xmlns="http://www.w3.org/2000/svg">
<g clip-path="url(#clip0_1_4836)">
<path d="M23 14.8652C24.3411 14.8652 25.2168 14.8685 25.627 14.875C26.0371 14.8815 26.5091 14.8978 27.043 14.9238C27.5247 14.9499 27.9089 14.9987 28.1953 15.0703C28.4818 15.1419 28.7161 15.2103 28.8984 15.2754C29.1328 15.3665 29.3379 15.4707 29.5137 15.5879C29.6895 15.7051 29.8685 15.8483 30.0508 16.0176C30.2201 16.1868 30.3633 16.3626 30.4805 16.5449C30.5977 16.7272 30.7018 16.9355 30.793 17.1699C30.8581 17.3392 30.9264 17.5671 30.998 17.8535C31.0697 18.14 31.1185 18.5306 31.1445 19.0254C31.1576 19.5462 31.1706 20.015 31.1836 20.4316C31.1966 20.8483 31.2031 21.7272 31.2031 23.0684C31.2031 24.3965 31.1966 25.2689 31.1836 25.6855C31.1706 26.1022 31.1576 26.571 31.1445 27.0918C31.1185 27.5866 31.0697 27.9772 30.998 28.2637C30.9264 28.5501 30.8581 28.778 30.793 28.9473C30.7018 29.1816 30.5977 29.39 30.4805 29.5723C30.3633 29.7546 30.2201 29.9303 30.0508 30.0996C29.8685 30.2819 29.6895 30.4316 29.5137 30.5488C29.3379 30.666 29.1328 30.7702 28.8984 30.8613C28.7161 30.9264 28.4818 30.9948 28.1953 31.0664C27.9089 31.138 27.5247 31.1803 27.043 31.1934C26.5091 31.2194 26.0371 31.2357 25.627 31.2422C25.2168 31.2487 24.3411 31.252 23 31.252C21.6719 31.252 20.7995 31.2487 20.3828 31.2422C19.9661 31.2357 19.4909 31.2194 18.957 31.1934C18.4753 31.1803 18.0911 31.138 17.8047 31.0664C17.5182 30.9948 17.2839 30.9264 17.1016 30.8613C16.8802 30.7702 16.6784 30.666 16.4961 30.5488C16.3138 30.4316 16.138 30.2819 15.9688 30.0996C15.7865 29.9303 15.6367 29.7546 15.5195 29.5723C15.4023 29.39 15.2982 29.1882 15.207 28.9668C15.1419 28.7845 15.0736 28.5501 15.002 28.2637C14.9303 27.9772 14.888 27.5931 14.875 27.1113C14.849 26.5775 14.8327 26.1022 14.8262 25.6855C14.8197 25.2689 14.8164 24.3965 14.8164 23.0684C14.8164 21.7272 14.8197 20.8483 14.8262 20.4316C14.8327 20.015 14.849 19.5462 14.875 19.0254C14.888 18.5436 14.9303 18.1595 15.002 17.873C15.0736 17.5866 15.1419 17.3522 15.207 17.1699C15.2982 16.9355 15.4023 16.7305 15.5195 16.5547C15.6367 16.3789 15.7799 16.1999 15.9492 16.0176C16.1315 15.8483 16.3105 15.7051 16.4863 15.5879C16.6621 15.4707 16.8672 15.3665 17.1016 15.2754C17.2839 15.2103 17.5182 15.1419 17.8047 15.0703C18.0911 14.9987 18.4753 14.9499 18.957 14.9238C19.4909 14.8978 19.9629 14.8815 20.373 14.875C20.7832 14.8685 21.6589 14.8652 23 14.8652ZM23 13.0684C21.6458 13.0684 20.7539 13.0716 20.3242 13.0781C19.8945 13.0846 19.4128 13.1009 18.8789 13.127C18.3451 13.153 17.8861 13.2051 17.502 13.2832C17.1178 13.3613 16.7695 13.4655 16.457 13.5957C16.1185 13.7259 15.806 13.8822 15.5195 14.0645C15.2331 14.2467 14.9531 14.4746 14.6797 14.748C14.4062 15.0215 14.1784 15.3014 13.9961 15.5879C13.8138 15.8743 13.6576 16.1868 13.5273 16.5254C13.3971 16.8379 13.293 17.1862 13.2148 17.5703C13.1367 17.9544 13.0846 18.4134 13.0586 18.9473C13.0326 19.4811 13.0163 19.9629 13.0098 20.3926C13.0033 20.8223 13 21.7142 13 23.0684C13 24.4225 13.0033 25.3145 13.0098 25.7441C13.0163 26.1738 13.0326 26.6556 13.0586 27.1895C13.0846 27.7233 13.1367 28.1823 13.2148 28.5664C13.293 28.9505 13.3971 29.2988 13.5273 29.6113C13.6576 29.9499 13.8138 30.2624 13.9961 30.5488C14.1784 30.8353 14.4062 31.1152 14.6797 31.3887C14.9531 31.6621 15.2331 31.89 15.5195 32.0723C15.806 32.2546 16.1185 32.4108 16.457 32.541C16.7695 32.6582 17.1178 32.7591 17.502 32.8438C17.8861 32.9284 18.3451 32.9837 18.8789 33.0098C19.4128 33.0358 19.8945 33.0521 20.3242 33.0586C20.7539 33.0651 21.6458 33.0684 23 33.0684C24.3542 33.0684 25.2461 33.0651 25.6758 33.0586C26.1055 33.0521 26.5872 33.0358 27.1211 33.0098C27.6549 32.9837 28.1139 32.9284 28.498 32.8438C28.8822 32.7591 29.2305 32.6582 29.543 32.541C29.8685 32.4108 30.1745 32.2546 30.4609 32.0723C30.7474 31.89 31.0339 31.6621 31.3203 31.3887C31.5938 31.1152 31.8216 30.8353 32.0039 30.5488C32.1862 30.2624 32.3424 29.9499 32.4727 29.6113C32.5898 29.2988 32.6908 28.9505 32.7754 28.5664C32.86 28.1823 32.9089 27.7233 32.9219 27.1895C32.9479 26.6556 32.9642 26.1738 32.9707 25.7441C32.9772 25.3145 32.9805 24.4225 32.9805 23.0684C32.9805 21.7142 32.9772 20.8223 32.9707 20.3926C32.9642 19.9629 32.9479 19.4811 32.9219 18.9473C32.9089 18.4134 32.86 17.9544 32.7754 17.5703C32.6908 17.1862 32.5898 16.8379 32.4727 16.5254C32.3424 16.1999 32.1862 15.8906 32.0039 15.5977C31.8216 15.3047 31.5938 15.0215 31.3203 14.748C31.0469 14.4746 30.7669 14.2467 30.4805 14.0645C30.194 13.8822 29.8815 13.7259 29.543 13.5957C29.2305 13.4785 28.8822 13.3776 28.498 13.293C28.1139 13.2083 27.6549 13.153 27.1211 13.127C26.5872 13.1009 26.1055 13.0846 25.6758 13.0781C25.2461 13.0716 24.3542 13.0684 23 13.0684ZM23 17.9316C22.2969 17.9316 21.6328 18.0684 21.0078 18.3418C20.3828 18.6022 19.8359 18.9668 19.3672 19.4355C18.8984 19.9043 18.5339 20.4512 18.2734 21.0762C18 21.7012 17.8633 22.3652 17.8633 23.0684C17.8633 23.7715 18 24.4355 18.2734 25.0605C18.5339 25.6855 18.8984 26.2324 19.3672 26.7012C19.8359 27.1699 20.3828 27.5345 21.0078 27.7949C21.6328 28.0684 22.2969 28.2051 23 28.2051C23.7031 28.2051 24.3672 28.0684 24.9922 27.7949C25.6172 27.5345 26.1641 27.1699 26.6328 26.7012C27.1016 26.2324 27.4661 25.6855 27.7266 25.0605C28 24.4355 28.1367 23.7715 28.1367 23.0684C28.1367 22.3652 28 21.7012 27.7266 21.0762C27.4661 20.4512 27.1016 19.9043 26.6328 19.4355C26.1641 18.9668 25.6172 18.6022 24.9922 18.3418C24.3672 18.0684 23.7031 17.9316 23 17.9316ZM23 26.4082C22.0755 26.4082 21.2878 26.0827 20.6367 25.4316C19.9857 24.7806 19.6602 23.9928 19.6602 23.0684C19.6602 22.1439 19.9857 21.3561 20.6367 20.7051C21.2878 20.054 22.0755 19.7285 23 19.7285C23.9245 19.7285 24.7122 20.054 25.3633 20.7051C26.0143 21.3561 26.3398 22.1439 26.3398 23.0684C26.3398 23.9928 26.0143 24.7806 25.3633 25.4316C24.7122 26.0827 23.9245 26.4082 23 26.4082ZM29.543 17.7363C29.543 18.0618 29.4258 18.3418 29.1914 18.5762C28.957 18.8105 28.6706 18.9277 28.332 18.9277C28.0065 18.9277 27.7266 18.8105 27.4922 18.5762C27.2578 18.3418 27.1406 18.0618 27.1406 17.7363C27.1406 17.3978 27.2578 17.1113 27.4922 16.877C27.7266 16.6426 28.0065 16.5254 28.332 16.5254C28.6706 16.5254 28.957 16.6426 29.1914 16.877C29.4258 17.1113 29.543 17.3978 29.543 17.7363Z" fill="white"/>
</g>
<defs>
<clipPath id="clip0_1_4836">
<rect width="20" height="20" fill="white" transform="matrix(1 0 0 -1 13 33.0684)"/>
</clipPath>
</defs>
</svg>
