<svg width="43" height="45" viewBox="0 0 43 45" fill="none" xmlns="http://www.w3.org/2000/svg">
<path d="M20.5 20.5684H23.957V22.3457H24.0156C24.25 21.916 24.6569 21.5124 25.2363 21.1348C25.8158 20.7572 26.5417 20.5684 27.4141 20.5684C28.3385 20.5684 29.0807 20.7051 29.6406 20.9785C30.2005 21.2389 30.6367 21.6035 30.9492 22.0723C31.2617 22.541 31.4766 23.0944 31.5938 23.7324C31.6979 24.3704 31.75 25.0605 31.75 25.8027V31.8184H28.1367V26.4863C28.1367 25.8483 28.0553 25.2038 27.8926 24.5527C27.7298 23.9017 27.1862 23.5762 26.2617 23.5762C25.3242 23.5762 24.7318 23.8659 24.4844 24.4453C24.237 25.0247 24.1133 25.6725 24.1133 26.3887V31.8184H20.5V20.5684ZM14.25 20.5684H18V31.8184H14.25V20.5684ZM18 17.4434C18 17.9642 17.8177 18.4069 17.4531 18.7715C17.0885 19.1361 16.6458 19.3184 16.125 19.3184C15.6042 19.3184 15.1615 19.1361 14.7969 18.7715C14.4323 18.4069 14.25 17.9642 14.25 17.4434C14.25 16.9225 14.4323 16.4798 14.7969 16.1152C15.1615 15.7507 15.6042 15.5684 16.125 15.5684C16.6458 15.5684 17.0885 15.7507 17.4531 16.1152C17.8177 16.4798 18 16.9225 18 17.4434Z" fill="white"/>
</svg>
