<svg width="16" height="16" viewBox="0 0 16 16" fill="none" xmlns="http://www.w3.org/2000/svg">
<path d="M14.7674 10.115C14.6352 10.284 14.4522 10.4059 14.2453 10.4629C14.0384 10.5198 13.8187 10.5087 13.6187 10.4313L10.5562 9.34438L10.5381 9.3375C10.3849 9.27623 10.2493 9.17802 10.1433 9.05164C10.0373 8.92525 9.96422 8.77461 9.93056 8.61313L9.54243 6.75375C8.53547 6.41064 7.44286 6.41306 6.43743 6.76063L6.06868 8.60563C6.03616 8.76889 5.96339 8.92145 5.85698 9.04948C5.75056 9.1775 5.61387 9.27693 5.45931 9.33875L5.44118 9.34563L2.37868 10.4313C2.265 10.476 2.14399 10.4994 2.02181 10.5C1.86971 10.5003 1.71955 10.4659 1.58277 10.3994C1.44598 10.3329 1.32616 10.236 1.23243 10.1163C0.155555 8.7275 0.27618 6.88438 1.52556 5.63438C5.03493 2.12375 10.9631 2.12375 14.4743 5.63438C15.7237 6.88313 15.8443 8.72625 14.7674 10.115ZM13.4999 12H2.49993C2.36732 12 2.24015 12.0527 2.14638 12.1464C2.05261 12.2402 1.99993 12.3674 1.99993 12.5C1.99993 12.6326 2.05261 12.7598 2.14638 12.8536C2.24015 12.9473 2.36732 13 2.49993 13H13.4999C13.6325 13 13.7597 12.9473 13.8535 12.8536C13.9473 12.7598 13.9999 12.6326 13.9999 12.5C13.9999 12.3674 13.9473 12.2402 13.8535 12.1464C13.7597 12.0527 13.6325 12 13.4999 12Z" fill="white"/>
</svg>
