<svg width="43" height="45" viewBox="0 0 43 45" fill="none" xmlns="http://www.w3.org/2000/svg">
<g clip-path="url(#clip0_1_4845)">
<path d="M23.0667 15.5349H23.2C24.4889 15.5793 25.7111 15.6238 26.8667 15.6682C28.9111 15.7127 30.2222 15.8238 30.8 16.0016C31.2444 16.0905 31.6222 16.3016 31.9333 16.6349C32.2444 16.9682 32.4556 17.346 32.5667 17.7682C32.6778 18.1905 32.7778 18.7793 32.8667 19.5349L32.9333 20.0682C32.9778 20.9127 33 21.7349 33 22.5349V22.6682C33 23.5127 32.9556 24.3571 32.8667 25.2016V25.4682C32.7778 26.3127 32.6778 26.9571 32.5667 27.4016C32.4556 27.846 32.2444 28.2238 31.9333 28.5349C31.6222 28.846 31.2444 29.0682 30.8 29.2016C30.1778 29.3793 28.8 29.4905 26.6667 29.5349C25.4667 29.5793 24.2667 29.6016 23.0667 29.6016H22.9333C21.7333 29.6016 20.5111 29.5793 19.2667 29.5349H18.5333C16.8444 29.446 15.7556 29.3349 15.2667 29.2016C14.7778 29.0682 14.3778 28.846 14.0667 28.5349C13.7556 28.2238 13.5333 27.846 13.4 27.4016C13.2667 26.9571 13.1778 26.3127 13.1333 25.4682V25.2016C13.0444 24.3571 13 23.5127 13 22.6682V22.5349C13 21.7349 13.0222 20.9793 13.0667 20.2682L13.1333 19.5349C13.2222 18.7793 13.3222 18.1905 13.4333 17.7682C13.5444 17.346 13.7556 16.9682 14.0667 16.6349C14.3778 16.3016 14.7556 16.0905 15.2 16.0016C15.7333 15.8682 16.8444 15.7571 18.5333 15.6682L19.2667 15.6016C20.4667 15.6016 21.6444 15.5793 22.8 15.5349H23.0667ZM21 19.6016V25.6016L26.2 22.6016L21 19.6016Z" fill="white"/>
</g>
<defs>
<clipPath id="clip0_1_4845">
<rect width="20" height="20" fill="white" transform="matrix(1 0 0 -1 13 33.0684)"/>
</clipPath>
</defs>
</svg>
